<svg height="512" viewBox="0 0 512 512" width="512" xmlns="http://www.w3.org/2000/svg" xmlns:xlink="http://www.w3.org/1999/xlink"><linearGradient id="a" gradientUnits="userSpaceOnUse" x1="13.354" x2="468.463" y1="498.646" y2="43.537" data-name="New Gradient Swatch 1"><stop offset="0" stop-color="#003f8a"/><stop offset=".518" stop-color="#00d7df"/><stop offset="1" stop-color="#006df0"/></linearGradient><linearGradient id="c" x1="13.354" x2="468.463" xlink:href="#a" y1="498.646" y2="43.537"/><linearGradient id="e" x1="-70.646" x2="384.463" xlink:href="#a" y1="414.646" y2="-40.463"/><linearGradient id="f" x1="97.354" x2="552.463" xlink:href="#a" y1="582.646" y2="127.537"/><g><path d="m496 96h-480a8 8 0 0 0 -8 8v304a8 8 0 0 0 8 8h480a8 8 0 0 0 8-8v-304a8 8 0 0 0 -8-8zm-8 304h-464v-288h464z" fill="url(#a)"/><path d="m472 168a40.04 40.04 0 0 1 -40-40 8 8 0 0 0 -8-8h-336a8 8 0 0 0 -8 8 40.04 40.04 0 0 1 -40 40 8 8 0 0 0 -8 8v160a8 8 0 0 0 8 8 40.04 40.04 0 0 1 40 40 8 8 0 0 0 8 8h336a8 8 0 0 0 8-8 40.04 40.04 0 0 1 40-40 8 8 0 0 0 8-8v-160a8 8 0 0 0 -8-8zm-8 160.58a56.11 56.11 0 0 0 -47.42 47.42h-321.16a56.11 56.11 0 0 0 -47.42-47.42v-145.16a56.11 56.11 0 0 0 47.42-47.42h321.16a56.11 56.11 0 0 0 47.42 47.42z" fill="url(#a)"/><path d="m256 344a88 88 0 1 0 -88-88 88.1 88.1 0 0 0 88 88zm0-160a72 72 0 1 1 -72 72 72.081 72.081 0 0 1 72-72z" fill="url(#c)"/><path d="m240 272a8 8 0 0 0 0 16h8a8 8 0 0 0 16 0h8a8 8 0 0 0 8-8v-24a8 8 0 0 0 -8-8h-24v-8h24a8 8 0 0 0 0-16h-8a8 8 0 0 0 -16 0h-8a8 8 0 0 0 -8 8v24a8 8 0 0 0 8 8h24v8z" fill="url(#c)"/><path d="m88 280a24 24 0 1 0 -24-24 24.027 24.027 0 0 0 24 24zm0-32a8 8 0 1 1 -8 8 8.009 8.009 0 0 1 8-8z" fill="url(#e)"/><path d="m424 280a24 24 0 1 0 -24-24 24.027 24.027 0 0 0 24 24zm0-32a8 8 0 1 1 -8 8 8.009 8.009 0 0 1 8-8z" fill="url(#f)"/></g></svg>